<?xml version="1.0" encoding="iso-8859-1"?>
<!-- Generator: Adobe Illustrator 16.0.0, SVG Export Plug-In . SVG Version: 6.00 Build 0)  -->
<!DOCTYPE svg PUBLIC "-//W3C//DTD SVG 1.1//EN" "http://www.w3.org/Graphics/SVG/1.1/DTD/svg11.dtd">
<svg version="1.1" id="Capa_1" xmlns="http://www.w3.org/2000/svg" xmlns:xlink="http://www.w3.org/1999/xlink" x="0px" y="0px"
	 width="615.433px" height="615.433px" viewBox="0 0 615.433 615.433" style="enable-background:new 0 0 615.433 615.433;"
	 xml:space="preserve">
<g>
	<path d="M253.193,573.177c12.128,10.043,23.367,19,33.493,26.733c6.092,4.674,10.488,7.929,12.88,9.653l8.151,5.869l8.123-5.869
		c2.393-1.725,6.787-4.979,12.88-9.653c10.126-7.761,21.392-16.719,33.493-26.733c34.605-28.681,69.239-60.31,101.563-94.025
		c72.217-75.304,122.706-149.912,141.762-220.766c5.396-20.057,8.179-39.613,8.179-58.641
		c0-188.913-172.473-269.697-306.139-127.352C174.412-69.98,1.716,15.812,1.716,199.745c0,19.028,2.782,38.612,8.151,58.641
		c19.027,70.854,69.518,145.434,141.761,220.766C183.981,512.867,218.587,544.496,253.193,573.177z"/>
</g>
<g>
</g>
<g>
</g>
<g>
</g>
<g>
</g>
<g>
</g>
<g>
</g>
<g>
</g>
<g>
</g>
<g>
</g>
<g>
</g>
<g>
</g>
<g>
</g>
<g>
</g>
<g>
</g>
<g>
</g>
</svg>
